<?xml version="1.0" encoding="utf-8"?>
<!-- Generator: Adobe Illustrator 21.0.0, SVG Export Plug-In . SVG Version: 6.00 Build 0)  -->
<svg version="1.1" id="Layer_1" xmlns="http://www.w3.org/2000/svg" xmlns:xlink="http://www.w3.org/1999/xlink" x="0px" y="0px"
	 viewBox="0 0 24 24" style="enable-background:new 0 0 24 24;" xml:space="preserve">
<style type="text/css">
	.st0{fill:#010101;}
</style>
<g>
	<g>
		<path class="st0" d="M17.2,10c1.3-1.7,2.3-3,2.3-4c0-0.2-0.2-0.4-0.4-0.4h-8.6c-0.1-1.7-1.6-3-3.3-2.9C5.6,2.9,4.3,4.3,4.4,6
			c0,1.7,1.4,3.1,3.1,3.1l0,0c0.3,0,0.7-0.1,1-0.2l0.8,1c1.6,2,3.5,4.5,3.5,6.5v3.3h-2c-0.2,0-0.4,0.2-0.5,0.4c0,0,0,0,0,0
			c0,0.2,0.2,0.4,0.5,0.4h4.8c0.2,0,0.4-0.2,0.4-0.4l0,0c0-0.2-0.2-0.4-0.4-0.4l0,0h-2v-3.3C13.7,14.4,15.7,12,17.2,10z M7.5,8.3
			c-1.3,0-2.3-1-2.3-2.2s1-2.3,2.2-2.3c1.1,0,2.1,0.8,2.3,1.9H7.4C7.2,5.6,7,5.8,7,6c0,0,0,0,0,0c0,0.5,0.3,1.2,0.8,1.9l0,0L8,8.3
			L7.5,8.3z M8.4,7.2C8.2,7,8,6.7,7.9,6.4h10.7c-0.1,0.3-0.2,0.6-0.4,0.8H8.4z M13.3,14.5c-0.7-1.7-2-3.5-3.3-5
			C9.6,9,9.3,8.5,8.9,8.1h8.7l-1,1.4C15.3,11,13.9,12.8,13.3,14.5z"/>
	</g>
</g>
</svg>
