<?xml version="1.0" encoding="utf-8"?>
<!-- Generator: Adobe Illustrator 21.0.0, SVG Export Plug-In . SVG Version: 6.00 Build 0)  -->
<svg version="1.1" id="Layer_1" xmlns="http://www.w3.org/2000/svg" xmlns:xlink="http://www.w3.org/1999/xlink" x="0px" y="0px"
	 viewBox="0 0 24 24" style="enable-background:new 0 0 24 24;" xml:space="preserve">
<style type="text/css">
	.st0{fill:#010101;}
</style>
<g>
	<path class="st0" d="M5.4,10.8h0.1l0.7,7.8c0.1,1,0.9,1.8,1.9,1.8h7.8c1,0,1.9-0.8,1.9-1.8l0.7-7.8h0.1c0.6,0,1.1-0.5,1.1-1.1
		c0-0.6-0.5-1.1-1.1-1.1h-1.1c0.6-0.7,0.5-1.7-0.2-2.3c-0.1-0.1-0.2-0.2-0.3-0.2c0.8-0.4,1.1-1.4,0.7-2.2c-0.3-0.5-0.8-0.9-1.5-0.9
		H7.7C6.8,2.9,6,3.7,6,4.6C6,5.2,6.4,5.7,6.9,6C6.1,6.5,5.8,7.5,6.2,8.3c0.1,0.1,0.1,0.2,0.2,0.3H5.4c-0.6,0-1.1,0.5-1.1,1.1
		C4.2,10.3,4.7,10.8,5.4,10.8z M7.7,3.5h8.7c0.6,0,1.1,0.5,1.1,1.1s-0.5,1.1-1.1,1.1h-5c-0.3,0-0.5-0.2-0.5-0.5c0,0,0,0,0,0
		c0-0.3,0.2-0.5,0.5-0.5h0c1,0,2.6,0,3.4,0c0,0,0.1,0,0.1,0.1c0,0,0,0.1-0.1,0.1c0,0,0,0,0,0h-0.9c-0.2,0-0.3,0.1-0.3,0.3
		c0,0.2,0.1,0.3,0.3,0.3h0.9c0.4,0,0.7-0.3,0.7-0.7S15.1,4,14.7,4c-0.7,0-2.4,0-3.4,0h0c-0.3,0-0.6,0.1-0.8,0.3
		c-0.2,0.2-0.3,0.5-0.3,0.8c0,0.2,0,0.4,0.1,0.5H7.7c-0.6,0-1.1-0.5-1.1-1.1S7.1,3.5,7.7,3.5z M7.7,6.4h8.7c0.6,0,1.1,0.5,1.1,1.1
		s-0.5,1.1-1.1,1.1h-5c-0.3,0-0.5-0.2-0.5-0.5c0,0,0,0,0,0c0-0.3,0.2-0.5,0.5-0.5h0c1,0,2.6,0,3.4,0c0,0,0.1,0,0.1,0.1
		c0,0,0,0.1-0.1,0.1c0,0,0,0,0,0h-0.9c-0.2,0-0.3,0.1-0.3,0.3c0,0.2,0.1,0.3,0.3,0.3h0.9c0.4,0,0.7-0.3,0.7-0.7
		c0-0.4-0.3-0.7-0.7-0.7c0,0,0,0,0,0c-0.7,0-2.4,0-3.4,0h0c-0.3,0-0.6,0.1-0.8,0.3c-0.2,0.2-0.3,0.5-0.3,0.8c0,0.2,0,0.4,0.1,0.5
		H7.7c-0.6,0-1.1-0.5-1.1-1.1S7.1,6.4,7.7,6.4z M17.2,18.5c-0.1,0.7-0.7,1.3-1.4,1.3H8.1c-0.7,0-1.3-0.5-1.4-1.3l-0.7-7.7h11.8
		L17.2,18.5z M5.4,9.2h13.3c0.3,0,0.5,0.2,0.5,0.5c0,0.3-0.2,0.5-0.5,0.5H5.4c-0.3,0-0.5-0.2-0.5-0.5C4.8,9.4,5.1,9.2,5.4,9.2z"/>
	<path class="st0" d="M10.8,13.9h2.5c0.6,0,1.1-0.5,1.1-1.1c0-0.6-0.5-1.1-1.1-1.1h-2.5c-0.6,0-1.1,0.5-1.1,1.1
		C9.6,13.4,10.1,13.9,10.8,13.9z M10.8,12.3h2.5c0.3,0,0.5,0.2,0.5,0.5s-0.2,0.5-0.5,0.5h-2.5c-0.3,0-0.5-0.2-0.5-0.5
		S10.5,12.3,10.8,12.3z"/>
</g>
</svg>
