<?xml version="1.0" encoding="utf-8"?>
<!-- Generator: Adobe Illustrator 21.0.0, SVG Export Plug-In . SVG Version: 6.00 Build 0)  -->
<svg version="1.1" id="Layer_1" xmlns="http://www.w3.org/2000/svg" xmlns:xlink="http://www.w3.org/1999/xlink" x="0px" y="0px"
	 viewBox="0 0 24 24" style="enable-background:new 0 0 24 24;" xml:space="preserve">
<style type="text/css">
	.st0{fill:#010101;}
</style>
<path class="st0" d="M21,11.4c0-5-4-9-9-9s-9,4-9,9c0,3.6,2.3,7,5.6,8.3l0,0.7c0,0.7,0.6,1.2,1.2,1.2c0.7,0,1.2-0.6,1.2-1.3l0,0
	c0.3,0,0.6,0.1,0.9,0.1c0.5,0,1,0,1.6-0.1l0,0.1c0,0.7,0.6,1.2,1.2,1.2c0.7,0,1.2-0.6,1.2-1.3l0-0.9C19,17.9,21,14.8,21,11.4z
	 M13.6,11.4H16c0,0.7-0.6,1.2-1.2,1.2C14.1,12.6,13.6,12.1,13.6,11.4z M16.7,11.4V7H16v3.7h-0.9V7h-0.6v3.7h-0.9V7h-0.6v4.4
	c0,0.7,0.4,1.3,0.9,1.6l-0.2,4.7c-0.9,0.2-1.8,0.3-2.7,0.1L10.8,13c0.9-0.5,1.6-1.6,1.6-2.9c0-1.7-1.1-3.1-2.5-3.1s-2.5,1.4-2.5,3.1
	c0,1.3,0.6,2.4,1.6,2.9l-0.2,4c-2-1.2-3.2-3.3-3.2-5.6c0-3.6,2.9-6.5,6.5-6.5s6.5,2.9,6.5,6.5c0,2.1-1,4-2.6,5.2L15.7,13
	C16.3,12.7,16.7,12.1,16.7,11.4z M8,10.1c0-1.4,0.8-2.5,1.9-2.5s1.9,1.1,1.9,2.5s-0.8,2.5-1.9,2.5S8,11.5,8,10.1z M9.8,21
	c-0.3,0-0.6-0.3-0.6-0.6l0.3-7.2c0.1,0,0.2,0,0.3,0c0.1,0,0.2,0,0.3,0l0.3,7.2C10.4,20.7,10.2,21,9.8,21z M11,19.7L11,18.4
	c0.3,0,0.7,0.1,1,0.1c0.6,0,1.1-0.1,1.6-0.2l-0.1,1.3C12.8,19.8,11.9,19.8,11,19.7z M14.8,21c-0.3,0-0.6-0.3-0.6-0.6l0.3-7.2
	c0.1,0,0.2,0,0.3,0c0.1,0,0.2,0,0.3,0l0.3,7.2C15.4,20.7,15.1,21,14.8,21z M16,18.8l-0.1-1.4c2-1.3,3.2-3.6,3.2-6
	c0-3.9-3.2-7.1-7.1-7.1s-7.1,3.2-7.1,7.1c0,2.7,1.5,5.1,3.8,6.3l-0.1,1.3c-3-1.3-5-4.4-5-7.7C3.6,6.8,7.4,3,12,3s8.4,3.8,8.4,8.4
	C20.4,14.5,18.7,17.3,16,18.8z"/>
</svg>
