<?xml version="1.0" encoding="utf-8"?>
<!-- Generator: Adobe Illustrator 21.0.0, SVG Export Plug-In . SVG Version: 6.00 Build 0)  -->
<svg version="1.1" id="Layer_1" xmlns="http://www.w3.org/2000/svg" xmlns:xlink="http://www.w3.org/1999/xlink" x="0px" y="0px"
	 viewBox="0 0 24 24" style="enable-background:new 0 0 24 24;" xml:space="preserve">
<style type="text/css">
	.st0{fill:#010101;}
</style>
<g>
	<path class="st0" d="M4.4,19.6h2.8c0.2,0,0.3-0.2,0.3-0.3v-0.1l2.6,1.1c1.4,0.6,3,0.6,4.4,0l5.3-2c0.3-0.1,0.6-0.4,0.7-0.7
		c0.1-0.3,0.1-0.7,0-1c-0.1-0.3-0.4-0.6-0.7-0.7c-0.3-0.1-0.7-0.1-1,0l-2.2,1c0,0,0-0.1,0-0.1c0-0.7-0.5-1.2-1.2-1.2h-2.7
		c-0.3,0-0.5-0.1-0.8-0.2c-1.1-0.6-2.4-0.9-3.6-0.9H7.5c0-0.2-0.2-0.3-0.3-0.3H4.4c-0.2,0-0.3,0.2-0.3,0.3H2.7v0.7h1.4v3.5H2.7v0.7
		h1.4C4.1,19.4,4.2,19.6,4.4,19.6z M8.4,15.1c1.1,0,2.3,0.3,3.3,0.8c0.3,0.2,0.7,0.3,1.1,0.3h2.7c0.3,0,0.5,0.2,0.5,0.5
		c0,0.2-0.2,0.4-0.4,0.5c0,0-0.1,0-0.1,0h-4.1v0.7h4.1c0,0,0,0,0,0l0,0c0,0,0,0,0,0c0.3,0,0.5-0.1,0.8-0.2l2.9-1.2
		c0.1-0.1,0.3-0.1,0.4,0c0.1,0.1,0.3,0.2,0.3,0.3c0.1,0.1,0.1,0.3,0,0.5c-0.1,0.1-0.2,0.3-0.3,0.3l-5.3,2c-1.3,0.5-2.6,0.5-3.9,0
		l-2.8-1.2v-3.3H8.4z M4.7,14.8h2.1v4.1H4.7V14.8z"/>
	<path class="st0" d="M6.5,13.4h13.8c0.6,0,1-0.5,1-1c0-0.6-0.5-1-1-1l0,0h0c-0.2-3.3-2.6-6-5.9-6.5V4.4c0-0.6-0.5-1-1-1s-1,0.5-1,1
		v0.4C9.1,5.3,6.7,8,6.5,11.3h0c-0.6,0-1,0.5-1,1C5.4,12.9,5.9,13.4,6.5,13.4z M13,4.7V4.4C13,4.2,13.2,4,13.4,4s0.3,0.2,0.3,0.3
		v0.3H13z M13.4,5.4c3.3,0,6,2.6,6.2,5.9H7.2C7.4,8,10.1,5.4,13.4,5.4z M6.5,12h13.8c0.2,0,0.3,0.2,0.3,0.3c0,0.2-0.2,0.3-0.3,0.3
		H6.5c-0.2,0-0.3-0.2-0.3-0.3C6.1,12.2,6.3,12,6.5,12z"/>
	<path class="st0" d="M11.5,6.4l0.2,0.7C12,7,12.2,7,12.4,6.9l-0.1-0.7C12,6.3,11.8,6.4,11.5,6.4z"/>
	<path class="st0" d="M8.5,9.1l0.6,0.3c0.5-0.9,1.2-1.6,2-2l-0.3-0.6C9.8,7.3,9,8.1,8.5,9.1z"/>
</g>
</svg>
