<?xml version="1.0" encoding="utf-8"?>
<!-- Generator: Adobe Illustrator 21.0.0, SVG Export Plug-In . SVG Version: 6.00 Build 0)  -->
<svg version="1.1" id="Layer_1" xmlns="http://www.w3.org/2000/svg" xmlns:xlink="http://www.w3.org/1999/xlink" x="0px" y="0px"
	 viewBox="0 0 24 24" style="enable-background:new 0 0 24 24;" xml:space="preserve">
<style type="text/css">
	.st0{fill:#010101;}
</style>
<g>
	<path class="st0" d="M12.8,5.2C12.8,5.2,12.8,5.2,12.8,5.2C12.8,5.2,12.8,5.2,12.8,5.2z"/>
	<path class="st0" d="M8.7,10.4c0.2,0,0.5-0.1,0.5-0.3c0.1-0.5,0.2-0.9,0.3-1.4C9.6,8.5,9.6,8.3,9.7,8c0-0.1,0.1-0.2,0.1-0.3
		c0-0.1,0-0.1,0.1-0.2c0,0,0,0,0-0.1c0,0,0,0,0-0.1c0,0,0,0,0,0c0,0,0,0,0,0c0.2-0.4,0.4-0.8,0.6-1.2c0.1-0.2,0.2-0.4,0.4-0.6
		C11,5.6,11,5.5,11.1,5.4c0,0,0.1-0.1,0.1-0.1c0,0,0,0,0.1-0.1c0,0,0,0,0,0c0,0,0,0,0,0c0.2-0.3,0.5-0.6,0.7-0.9
		c0.2,0.2,0.4,0.5,0.6,0.7c0,0,0.1,0.1,0.1,0.1c0,0,0,0,0,0c0,0,0,0,0,0.1c0.1,0.1,0.1,0.2,0.2,0.3c0.1,0.2,0.3,0.4,0.4,0.6
		c0.2,0.4,0.5,0.8,0.6,1.2c0,0,0,0.1,0.1,0.1c0,0.1,0-0.1,0,0c0,0,0,0,0,0.1c0,0.1,0.1,0.2,0.1,0.4c0.1,0.2,0.1,0.4,0.2,0.6
		c0.1,0.5,0.3,1,0.3,1.5c0,0.2,0.3,0.3,0.5,0.3c0.2-0.1,0.3-0.3,0.3-0.5c-0.3-1.9-1-3.7-2.2-5.2c-0.3-0.4-0.7-0.8-1-1.1
		c-0.2-0.1-0.4-0.1-0.6,0c-1.4,1.3-2.4,3-2.9,4.8c-0.2,0.5-0.3,1-0.3,1.6c0,0.1,0,0.2,0,0.3C8.5,10.3,8.6,10.3,8.7,10.4z"/>
	<path class="st0" d="M16.7,18C16.7,18,16.8,18,16.7,18C16.8,17.9,16.8,17.9,16.7,18z"/>
	<path class="st0" d="M21,9.5c0-0.2-0.2-0.4-0.4-0.4C19,9.2,17.4,9.8,16,10.7c-1.5,1-2.7,2.3-3.5,3.9c-0.2,0.4-0.4,0.8-0.5,1.2
		c-0.4-1.2-1-2.2-1.8-3.2c-1.1-1.3-2.5-2.3-4.1-2.9C5.2,9.4,4.3,9.2,3.4,9.1C3.2,9.1,3,9.3,3,9.5c-0.2,1.6,0,3.2,0.5,4.6
		c0.6,1.5,1.5,2.9,2.7,4c1.2,1,2.5,1.8,4,2.2c0.3,0.1,0.7,0.2,1.1,0.2c0.2,0,0.4,0.1,0.6,0.1c0.2,0,0.3,0,0.5,0
		c0.8-0.1,1.5-0.3,2.2-0.5c1.5-0.5,2.8-1.4,3.8-2.6c0.1-0.1,0.3-0.3,0.4-0.4c0,0,0,0,0,0c0.7-0.8,1.2-1.8,1.6-2.8c0.4-1,0.6-2,0.6-3
		C21.1,10.6,21.1,10.1,21,9.5z M15.8,11.7C15.8,11.8,15.8,11.8,15.8,11.7L15.8,11.7z M20.3,11c0,0.2,0,0.5,0,0.7c0,0.1,0,0.1,0,0.2
		c0,0,0,0.1,0,0.1c0,0,0,0,0,0c0,0.1,0,0.3-0.1,0.4c-0.1,0.5-0.2,1-0.4,1.4c0,0.1-0.1,0.2-0.1,0.3c0,0.1,0,0.1-0.1,0.1
		c0,0,0,0.1,0,0c0,0,0,0.1-0.1,0.1c-0.1,0.2-0.2,0.5-0.3,0.7c-0.1,0.3-0.3,0.5-0.4,0.7c-0.1,0.1-0.2,0.2-0.2,0.4
		c0,0.1-0.1,0.1-0.1,0.2c0.1-0.1,0,0,0,0c0,0-0.1,0.1-0.1,0.1c-0.2,0.3-0.5,0.6-0.8,0.8c-0.1,0.1-0.3,0.3-0.4,0.4
		c-0.1,0.1-0.1,0.1-0.2,0.2c0,0-0.1,0.1-0.1,0.1c0,0,0,0,0,0c0,0,0,0,0,0c-0.6,0.4-1.2,0.8-1.9,1.1c0,0-0.1,0-0.1,0c0,0,0,0,0,0
		c0,0,0,0-0.1,0c-0.1,0-0.2,0.1-0.3,0.1c-0.2,0.1-0.3,0.1-0.5,0.2c-0.3,0.1-0.7,0.2-1,0.3c-0.1,0-0.2,0-0.3,0c0,0-0.1,0-0.1,0
		c0,0,0,0-0.1,0c0,0,0,0,0,0c0,0-0.4,0-0.5,0c-0.1,0-0.2,0-0.3,0c0,0-0.2,0-0.1,0c0,0-0.1,0-0.1,0c-0.2,0-0.3-0.1-0.5-0.1
		c-0.3-0.1-0.7-0.2-1-0.3c-0.2-0.1-0.3-0.1-0.5-0.2c0,0-0.1,0-0.1,0c0,0-0.1,0,0,0c0,0,0,0,0,0C9.2,19.1,9.1,19,9,19
		c-0.3-0.2-0.6-0.3-1-0.5c-0.2-0.1-0.3-0.2-0.5-0.3c-0.1-0.1-0.2-0.1-0.2-0.2c0,0-0.1,0-0.1-0.1c0,0,0,0,0,0c0,0,0,0,0,0
		c0,0,0,0-0.1-0.1c-0.6-0.5-1.1-1-1.6-1.6c0,0,0,0-0.1-0.1c0,0-0.1-0.1-0.1-0.1C5.4,16,5.3,16,5.3,15.9c-0.1-0.2-0.2-0.3-0.3-0.5
		c-0.2-0.3-0.4-0.7-0.5-1c0,0,0,0,0,0c0,0,0,0,0,0c0,0,0-0.1,0-0.1c0-0.1-0.1-0.2-0.1-0.3c-0.1-0.2-0.1-0.4-0.2-0.5
		C4,13,3.9,12.6,3.8,12.2c0-0.1,0-0.2,0-0.2c0,0,0,0,0,0c0,0,0,0,0-0.1c0-0.1,0-0.1,0-0.2c0-0.2,0-0.4,0-0.6c0-0.4,0-0.7,0-1.1
		c0,0,0-0.1,0-0.1c0,0,0,0,0.1,0c0,0,0.1,0,0.1,0c0,0,0,0,0,0c0.2,0,0.4,0.1,0.6,0.1c0.4,0.1,0.7,0.2,1.1,0.3
		c0.2,0.1,0.4,0.1,0.5,0.2c0,0,0,0,0.1,0c0,0,0,0,0,0c0,0,0,0,0,0c0,0,0.1,0,0.1,0.1c0.1,0,0.2,0.1,0.3,0.1c0.4,0.2,0.7,0.4,1,0.6
		c0.2,0.1,0.3,0.2,0.5,0.3c0,0,0,0,0.1,0c0,0,0,0,0,0c0,0,0.1,0,0.1,0.1C8.4,11.9,8.4,12,8.5,12c0.3,0.3,0.6,0.6,0.9,0.9
		c0.1,0.2,0.3,0.3,0.4,0.5c0,0.1,0,0,0,0c0,0,0,0,0.1,0.1c0,0,0.1,0.1,0.1,0.1c0.1,0.1,0.1,0.2,0.2,0.3c0.2,0.3,0.4,0.7,0.6,1.1
		c0,0.1,0.1,0.2,0.1,0.3c0,0.1,0,0.1,0.1,0.2c0,0,0,0,0,0.1c0-0.1,0,0,0,0c0.1,0.2,0.2,0.4,0.2,0.7c0.1,0.4,0.2,0.9,0.3,1.3
		c0,0.2,0.2,0.3,0.4,0.3c0.2,0,0.3-0.1,0.4-0.3c0.1-0.4,0.2-0.8,0.3-1.2c0.1-0.2,0.1-0.4,0.2-0.6c0-0.1,0.1-0.2,0.1-0.3
		c0,0.1,0,0,0-0.1c0-0.1,0-0.1,0.1-0.2c0.2-0.4,0.4-0.7,0.6-1.1c0.1-0.2,0.2-0.4,0.4-0.5c0,0,0.1-0.1,0.1-0.1c0,0,0,0,0.1-0.1
		c0,0,0,0,0,0c0,0,0,0,0,0c0,0,0,0,0-0.1c0,0,0.1-0.1,0.1-0.1c0.3-0.3,0.6-0.6,0.9-0.9c0.2-0.1,0.3-0.3,0.5-0.4c0,0,0.1-0.1,0.1-0.1
		c0,0,0,0,0,0c0,0,0,0,0.1,0c0.1-0.1,0.2-0.1,0.3-0.2c0.3-0.2,0.7-0.4,1-0.6c0.2-0.1,0.3-0.2,0.5-0.3c0,0,0.1,0,0.1-0.1c0,0,0,0,0,0
		c0,0,0,0,0.1,0c0.1,0,0.2-0.1,0.3-0.1c0.4-0.2,0.8-0.3,1.3-0.4c0.2,0,0.4-0.1,0.6-0.1c0,0,0.1,0,0.1,0c0,0,0,0,0,0c0,0,0.1,0,0.1,0
		C20.3,10.3,20.3,10.6,20.3,11z M14.2,13.4C14.2,13.4,14.2,13.4,14.2,13.4C14.2,13.4,14.2,13.4,14.2,13.4
		C14.2,13.4,14.2,13.4,14.2,13.4z"/>
	<path class="st0" d="M3.8,9.9C3.8,9.9,3.8,9.9,3.8,9.9C3.8,9.9,3.8,9.9,3.8,9.9z"/>
	<path class="st0" d="M12.4,19.8C12.4,19.8,12.4,19.8,12.4,19.8C12.4,19.8,12.4,19.8,12.4,19.8C12.4,19.8,12.4,19.8,12.4,19.8z"/>
</g>
</svg>
