<?xml version="1.0" encoding="utf-8"?>
<!-- Generator: Adobe Illustrator 21.0.0, SVG Export Plug-In . SVG Version: 6.00 Build 0)  -->
<svg version="1.1" id="Layer_1" xmlns="http://www.w3.org/2000/svg" xmlns:xlink="http://www.w3.org/1999/xlink" x="0px" y="0px"
	 viewBox="0 0 24 24" style="enable-background:new 0 0 24 24;" xml:space="preserve">
<style type="text/css">
	.st0{fill:#010101;}
</style>
<path class="st0" d="M12,4.5c-3.3,0-6.5,1.2-9,3.3C2.8,7.9,2.7,8.1,2.7,8.3c0,0.4,0.3,0.6,0.6,0.6c0.2,0,0.3-0.1,0.4-0.2l0,0
	c2.3-1.9,5.2-3,8.2-3c3,0,5.9,1,8.2,3c0.1,0.1,0.3,0.2,0.4,0.2c0.4,0,0.6-0.3,0.6-0.6c0-0.2-0.1-0.4-0.2-0.5l0,0
	C18.5,5.7,15.3,4.5,12,4.5C12,4.5,12,4.5,12,4.5L12,4.5C12,4.5,12,4.5,12,4.5z M12,8.4c-2.4,0-4.6,0.8-6.5,2.3
	c-0.1,0.1-0.2,0.3-0.2,0.5c0,0.4,0.3,0.6,0.6,0.6c0.2,0,0.3-0.1,0.4-0.1l0,0c1.6-1.3,3.6-2,5.7-2c2.1,0,4.1,0.7,5.7,2
	c0.1,0.1,0.3,0.1,0.4,0.1c0.4,0,0.6-0.3,0.6-0.6c0-0.2-0.1-0.4-0.2-0.5l0,0C16.6,9.2,14.4,8.4,12,8.4C12,8.4,12,8.4,12,8.4L12,8.4
	L12,8.4L12,8.4z M12,12.3c-1.4,0-2.8,0.5-3.9,1.3c-0.2,0.1-0.3,0.3-0.3,0.5c0,0.4,0.3,0.6,0.6,0.6c0.1,0,0.3,0,0.4-0.1l0,0
	c0.9-0.7,2-1,3.1-1c1.1,0,2.2,0.4,3.1,1c0.1,0.1,0.3,0.1,0.4,0.1c0.4,0,0.6-0.3,0.6-0.6c0-0.2-0.1-0.4-0.3-0.5l0,0
	C14.8,12.8,13.4,12.3,12,12.3C12,12.3,12,12.3,12,12.3C12,12.3,12,12.3,12,12.3L12,12.3L12,12.3z M12,16.2c-0.7,0-1.3,0.6-1.3,1.3
	c0,0.7,0.6,1.3,1.3,1.3s1.3-0.6,1.3-1.3C13.3,16.8,12.7,16.2,12,16.2z"/>
</svg>
